STARTFONT 2.1
COMMENT
COMMENT Converted from OpenType font "Q:\font stuff\winfont\HeberlingCasualNF Bold.ttf" by "otf2bdf 3.0".
COMMENT
FONT -FreeType-HeberlingCasualNF-Bold-R-Normal--30-300-72-72-P-138-ISO10646-1
SIZE 30 72 72
FONTBOUNDINGBOX 38 37 -6 -9
STARTPROPERTIES 19
FOUNDRY "FreeType"
FAMILY_NAME "HeberlingCasualNF"
WEIGHT_NAME "Bold"
SLANT "R"
SETWIDTH_NAME "Normal"
ADD_STYLE_NAME ""
PIXEL_SIZE 24
POINT_SIZE 300
RESOLUTION_X 72
RESOLUTION_Y 72
SPACING "P"
AVERAGE_WIDTH 138
CHARSET_REGISTRY "ISO10646"
CHARSET_ENCODING "1"
FONT_ASCENT 21
FONT_DESCENT 8
COPYRIGHT "Copyright (c) Nick's Fonts, 2002. All rights reserved."
_OTF_FONTFILE "Q:\font stuff\winfont\HeberlingCasualNF Bold.ttf"
_OTF_PSNAME "HeberlingCasualNF-Bold"
ENDPROPERTIES
CHARS 252
STARTCHAR 0020
ENCODING 32
SWIDTH 200 0
DWIDTH 6 0
BBX 0 0 0 0
BITMAP
ENDCHAR
STARTCHAR 0021
ENCODING 33
SWIDTH 133 0
DWIDTH 4 0
BBX 3 20 0 0
BITMAP
60
C0
C0
C0
C0
C0
C0
C0
C0
C0
C0
C0
C0
C0
C0
C0
C0
C0
C0
C0
ENDCHAR
STARTCHAR 0022
ENCODING 34
SWIDTH 266 0
DWIDTH 8 0
BBX 6 7 1 14
BITMAP
FC
FC
FC
FC
FC
7C
48
ENDCHAR
STARTCHAR 0023
ENCODING 35
SWIDTH 566 0
DWIDTH 17 0
BBX 16 15 0 5
BITMAP
C63C
F77E
7EE3
6EC3
66E7
667E
663C
66FF
66FF
6200
6000
6000
7000
E000
4000
ENDCHAR
STARTCHAR 0024
ENCODING 36
SWIDTH 633 0
DWIDTH 19 0
BBX 18 21 0 1
BITMAP
01B000
01B000
01FE00
03FF80
07B1C0
0FB0C0
0DB000
0DB000
0FB000
07B000
03B000
01B800
01BC00
01BC00
C1BC00
C1BC00
E1F800
7FF000
1FF000
01B000
01A000
ENDCHAR
STARTCHAR 0025
ENCODING 37
SWIDTH 766 0
DWIDTH 23 0
BBX 22 20 0 0
BITMAP
1FFF00
3FFF00
71C300
E0C600
C06600
C06C00
C06C00
C07BE0
60FFF0
71FE38
3FBC18
1F780C
00780C
00D80C
00D80C
01980C
018C18
030E38
0307F0
0203E0
ENDCHAR
STARTCHAR 0026
ENCODING 38
SWIDTH 800 0
DWIDTH 24 0
BBX 23 20 0 0
BITMAP
00FE00
03FFC0
0F01E0
1C0060
180430
180C30
180C30
0C0C70
1E07E0
3C03C0
70000C
E0038E
C007C6
C00666
C0066E
E003FC
7001F0
3E03C0
0FFF00
01FC00
ENDCHAR
STARTCHAR 0027
ENCODING 39
SWIDTH 133 0
DWIDTH 4 0
BBX 4 7 0 14
BITMAP
60
F0
60
60
60
60
60
ENDCHAR
STARTCHAR 0028
ENCODING 40
SWIDTH 233 0
DWIDTH 7 0
BBX 6 27 0 -7
BITMAP
0C
1C
38
30
60
60
60
60
C0
C0
C0
C0
C0
C0
C0
C0
C0
C0
C0
60
60
60
60
30
38
1C
0C
ENDCHAR
STARTCHAR 0029
ENCODING 41
SWIDTH 266 0
DWIDTH 8 0
BBX 6 27 1 -7
BITMAP
C0
E0
70
30
18
18
18
18
0C
0C
0C
0C
0C
0C
0C
0C
0C
0C
0C
18
18
18
18
30
70
E0
C0
ENDCHAR
STARTCHAR 002A
ENCODING 42
SWIDTH 300 0
DWIDTH 9 0
BBX 8 8 1 12
BITMAP
18
18
18
FF
7E
3C
7E
66
ENDCHAR
STARTCHAR 002B
ENCODING 43
SWIDTH 466 0
DWIDTH 14 0
BBX 12 12 1 4
BITMAP
0600
0600
0600
0600
0600
FFF0
FFF0
0600
0600
0600
0600
0600
ENDCHAR
STARTCHAR 002C
ENCODING 44
SWIDTH 200 0
DWIDTH 6 0
BBX 4 6 1 -3
BITMAP
60
F0
F0
70
F0
E0
ENDCHAR
STARTCHAR 002D
ENCODING 45
SWIDTH 233 0
DWIDTH 7 0
BBX 5 2 1 7
BITMAP
F8
F8
ENDCHAR
STARTCHAR 002E
ENCODING 46
SWIDTH 166 0
DWIDTH 5 0
BBX 4 4 0 -1
BITMAP
60
F0
F0
60
ENDCHAR
STARTCHAR 002F
ENCODING 47
SWIDTH 300 0
DWIDTH 9 0
BBX 8 26 1 -7
BITMAP
03
03
02
06
06
06
04
0C
0C
0C
18
18
18
18
30
30
30
20
60
60
60
40
C0
C0
C0
80
ENDCHAR
STARTCHAR 0030
ENCODING 48
SWIDTH 566 0
DWIDTH 17 0
BBX 15 21 1 -1
BITMAP
07C0
0FE0
1C70
3018
701C
600C
600C
C006
C006
C006
C006
C006
C006
C006
600C
600C
701C
3018
1C70
0FE0
07C0
ENDCHAR
STARTCHAR 0031
ENCODING 49
SWIDTH 233 0
DWIDTH 7 0
BBX 6 20 0 0
BITMAP
18
38
78
F8
D8
18
18
18
18
18
18
18
18
18
18
18
18
18
3C
3C
ENDCHAR
STARTCHAR 0032
ENCODING 50
SWIDTH 600 0
DWIDTH 18 0
BBX 16 20 1 0
BITMAP
03F0
1FFC
3C1E
7006
6003
C003
C003
C003
C006
0006
000C
0038
0070
00E0
01C0
0700
0E00
1C06
3FFE
3FFC
ENDCHAR
STARTCHAR 0033
ENCODING 51
SWIDTH 633 0
DWIDTH 19 0
BBX 18 20 0 0
BITMAP
07E000
1FF000
383800
301800
003800
007000
01F800
003E00
000700
000180
0001C0
0000C0
0000C0
0000C0
0000C0
C00180
E00380
781E00
1FFC00
07F000
ENDCHAR
STARTCHAR 0034
ENCODING 52
SWIDTH 500 0
DWIDTH 15 0
BBX 13 20 1 0
BITMAP
00C0
00C0
06C0
06C0
0CC0
0CC0
18C0
18C0
30C0
30C0
60C0
60D8
C0D8
FFF8
FFF0
00C0
00C0
00C0
01E0
01E0
ENDCHAR
STARTCHAR 0035
ENCODING 53
SWIDTH 666 0
DWIDTH 20 0
BBX 18 20 1 0
BITMAP
0FFC00
0FFC00
180600
180600
180000
1FF000
1FFC00
181E00
000300
000180
0001C0
0000C0
0000C0
0000C0
0001C0
C00180
E00700
781E00
1FFC00
07E000
ENDCHAR
STARTCHAR 0036
ENCODING 54
SWIDTH 666 0
DWIDTH 20 0
BBX 19 21 0 0
BITMAP
00F000
03F000
070000
1C0000
180000
300000
60FC00
63FF00
C78380
CE01C0
CC00C0
D80060
D80060
D80060
600060
600060
3000C0
3801C0
1E0780
07FF00
01F800
ENDCHAR
STARTCHAR 0037
ENCODING 55
SWIDTH 400 0
DWIDTH 12 0
BBX 10 25 1 -5
BITMAP
7FC0
FFC0
C0C0
8080
0180
0180
0300
0300
0200
0600
0600
0C00
0C00
0C00
1800
1800
3000
3000
3000
6000
6000
C000
C000
C000
8000
ENDCHAR
STARTCHAR 0038
ENCODING 56
SWIDTH 666 0
DWIDTH 20 0
BBX 19 21 0 -1
BITMAP
01F000
07FC00
0E0E00
0C0600
0E0E00
07FC00
0FFE00
1E0F00
380380
6000C0
E000C0
C00060
C00060
C00060
C00060
E000E0
6000C0
380380
1E0F00
0FFE00
03F800
ENDCHAR
STARTCHAR 0039
ENCODING 57
SWIDTH 600 0
DWIDTH 18 0
BBX 17 21 0 -2
BITMAP
07E000
1FF800
383C00
700E00
E00700
C00300
C00700
C00780
C00780
E00F80
601D80
383980
1FF180
0FC300
000300
000600
000C00
001C00
007800
03E000
078000
ENDCHAR
STARTCHAR 003A
ENCODING 58
SWIDTH 166 0
DWIDTH 5 0
BBX 4 12 0 -1
BITMAP
60
F0
F0
60
00
00
00
00
60
F0
F0
60
ENDCHAR
STARTCHAR 003B
ENCODING 59
SWIDTH 200 0
DWIDTH 6 0
BBX 4 14 1 -3
BITMAP
60
F0
F0
60
00
00
00
00
60
F0
F0
70
E0
E0
ENDCHAR
STARTCHAR 003C
ENCODING 60
SWIDTH 533 0
DWIDTH 16 0
BBX 14 12 1 4
BITMAP
000C
007C
01F0
0F80
3E00
F000
F000
3E00
0F80
01E0
007C
000C
ENDCHAR
STARTCHAR 003D
ENCODING 61
SWIDTH 400 0
DWIDTH 12 0
BBX 10 5 1 8
BITMAP
FFC0
FFC0
0000
FFC0
FFC0
ENDCHAR
STARTCHAR 003E
ENCODING 62
SWIDTH 533 0
DWIDTH 16 0
BBX 14 12 1 4
BITMAP
C000
F000
3E00
0780
01F0
003C
003C
01F0
0780
3E00
F800
C000
ENDCHAR
STARTCHAR 003F
ENCODING 63
SWIDTH 533 0
DWIDTH 16 0
BBX 15 20 0 0
BITMAP
0FC0
3FF0
703C
E00C
C006
C006
E006
7006
100C
0038
01F0
0180
0180
0180
0180
0180
0180
0180
0180
0180
ENDCHAR
STARTCHAR 0040
ENCODING 64
SWIDTH 733 0
DWIDTH 22 0
BBX 21 20 0 0
BITMAP
00FC00
07FF80
0F03C0
1C00E0
387E70
71FF30
63C338
C70318
CE0318
CC0218
CC0618
CC0618
CC0630
660E70
67FFF0
31F3F0
1C00E0
0F03C0
07FF80
01FC00
ENDCHAR
STARTCHAR 0041
ENCODING 65
SWIDTH 866 0
DWIDTH 26 0
BBX 25 20 1 0
BITMAP
007F8000
01FFE000
07C0F000
1E003000
38003000
30003000
60003000
60003000
C0003000
C0003000
C0003000
C0003000
C0003000
C0003000
60007000
7000F000
3801F000
1E07B980
0FFE1F80
01F80F00
ENDCHAR
STARTCHAR 0042
ENCODING 66
SWIDTH 666 0
DWIDTH 20 0
BBX 19 21 0 0
BITMAP
07E000
1FF000
3C3800
2C1800
0C1800
0C7000
0DF800
0DFE00
0C0700
0C0180
0C00C0
0C00E0
0C0060
0C0060
0C0060
0C00E0
CC00C0
6C0380
3C0F00
1FFE00
07F000
ENDCHAR
STARTCHAR 0043
ENCODING 67
SWIDTH 733 0
DWIDTH 22 0
BBX 20 21 1 0
BITMAP
01FC00
07FF00
0F0380
1C01C0
380060
700070
600030
E00030
C00030
C00030
C00060
C000E0
C001C0
C00180
600000
600000
300000
180000
0E0000
07E000
00E000
ENDCHAR
STARTCHAR 0044
ENCODING 68
SWIDTH 833 0
DWIDTH 25 0
BBX 23 20 1 0
BITMAP
0FFC00
7FFF80
7803E0
180070
180038
18001C
18000C
180006
180006
180006
180006
180006
18000E
18000C
18001C
180038
1800F0
F807C0
FFFF00
1FF800
ENDCHAR
STARTCHAR 0045
ENCODING 69
SWIDTH 466 0
DWIDTH 14 0
BBX 12 20 1 0
BITMAP
FF80
FF80
60C0
60C0
6000
6000
6000
6000
6000
6000
6000
6000
6000
6000
7F00
7F10
6030
6030
FFE0
FFE0
ENDCHAR
STARTCHAR 0046
ENCODING 70
SWIDTH 366 0
DWIDTH 11 0
BBX 10 20 1 0
BITMAP
FF80
FF80
60C0
60C0
6000
6000
6000
6000
6000
6000
6000
6000
6000
6000
7E00
7E00
6000
6000
F800
F800
ENDCHAR
STARTCHAR 0047
ENCODING 71
SWIDTH 800 0
DWIDTH 24 0
BBX 23 20 1 0
BITMAP
007F00
03FFC0
0F80F0
1C0038
38000C
700006
600006
E0000C
C0001C
C00018
C00000
C00000
C00000
60007E
70007E
380018
1C0018
0F80F8
03FFE0
007F00
ENDCHAR
STARTCHAR 0048
ENCODING 72
SWIDTH 466 0
DWIDTH 14 0
BBX 12 20 1 0
BITMAP
F0F0
F0F0
6060
6060
6060
6060
6060
6060
6060
6060
6060
6060
7FE0
7FE0
6060
6060
6060
6060
F0F0
F0F0
ENDCHAR
STARTCHAR 0049
ENCODING 73
SWIDTH 200 0
DWIDTH 6 0
BBX 4 20 1 0
BITMAP
F0
F0
60
60
60
60
60
60
60
60
60
60
60
60
60
60
60
60
F0
F0
ENDCHAR
STARTCHAR 004A
ENCODING 74
SWIDTH 466 0
DWIDTH 14 0
BBX 13 20 0 0
BITMAP
0078
0078
0030
0030
0030
0030
0030
0030
0030
0030
0030
1E30
7F30
E3B0
C1B0
C9B0
DF70
7EE0
3FC0
1F00
ENDCHAR
STARTCHAR 004B
ENCODING 75
SWIDTH 500 0
DWIDTH 15 0
BBX 13 20 1 0
BITMAP
F0F8
F0F8
6060
60C0
6180
6180
6300
6600
6600
6E00
7B00
7B00
7100
7100
6100
6100
6180
6180
F0F8
F078
ENDCHAR
STARTCHAR 004C
ENCODING 76
SWIDTH 366 0
DWIDTH 11 0
BBX 9 20 1 0
BITMAP
F800
F800
6000
6000
6000
6000
6000
6000
6000
6000
6000
6000
6000
6000
6000
6180
6180
6300
FF00
FE00
ENDCHAR
STARTCHAR 004D
ENCODING 77
SWIDTH 666 0
DWIDTH 20 0
BBX 20 21 0 1
BITMAP
C00030
600060
3000C0
3801C0
3C03C0
3606C0
330CC0
3198C0
31F8C0
30F0C0
3060C0
3000C0
3000C0
3000C0
3000C0
3000C0
3000C0
3000C0
3000C0
7801E0
7801E0
ENDCHAR
STARTCHAR 004E
ENCODING 78
SWIDTH 466 0
DWIDTH 14 0
BBX 13 21 0 0
BITMAP
C000
F078
3C78
3630
31B0
30F0
3030
3030
3030
3030
3030
3030
3030
3030
3030
3030
3030
3030
3030
7830
7830
ENDCHAR
STARTCHAR 004F
ENCODING 79
SWIDTH 766 0
DWIDTH 23 0
BBX 21 21 1 0
BITMAP
01FC00
07FF00
0F0780
1C01C0
3800E0
700070
600030
E00038
C00018
C00018
C00018
C00018
C00018
E00038
600030
700070
3000E0
1C01C0
0F0780
07FF00
01FC00
ENDCHAR
STARTCHAR 0050
ENCODING 80
SWIDTH 500 0
DWIDTH 15 0
BBX 13 20 1 0
BITMAP
3F80
FFE0
E070
6018
6018
6018
6070
7FE0
7F80
6000
6000
6000
6000
6000
6000
6000
6000
6000
F000
F000
ENDCHAR
STARTCHAR 0051
ENCODING 81
SWIDTH 766 0
DWIDTH 23 0
BBX 21 24 1 -4
BITMAP
01FC00
07FF00
0F0780
1C01C0
300060
600030
600030
C00018
C00018
C00018
C00018
C00018
C02018
603030
603030
303060
1C19C0
0F1B80
07FF00
01FC00
000600
000700
0003C0
0001C0
ENDCHAR
STARTCHAR 0052
ENCODING 82
SWIDTH 566 0
DWIDTH 17 0
BBX 16 20 0 0
BITMAP
3FE0
FFF8
703C
300C
301C
30F8
37E0
3600
3200
3300
3300
3300
3180
3180
30C0
30E0
3070
3038
781F
7807
ENDCHAR
STARTCHAR 0053
ENCODING 83
SWIDTH 666 0
DWIDTH 20 0
BBX 19 20 0 0
BITMAP
03F800
0FFE00
3E0780
7001C0
E000E0
C00060
C00060
C00060
C00060
600000
380000
1C0000
060000
030000
018000
018000
018000
C38000
7F0000
3C0000
ENDCHAR
STARTCHAR 0054
ENCODING 84
SWIDTH 500 0
DWIDTH 15 0
BBX 14 20 1 0
BITMAP
7FF8
FFFC
C30C
8304
0300
0300
0300
0300
0300
0300
0300
0300
0300
0300
0300
0300
0300
0300
0780
0780
ENDCHAR
STARTCHAR 0055
ENCODING 85
SWIDTH 500 0
DWIDTH 15 0
BBX 13 20 1 0
BITMAP
F078
F078
6030
6030
6030
6030
6030
6030
6030
6030
6030
6030
6030
6030
6030
6030
7070
38E0
1FC0
0F80
ENDCHAR
STARTCHAR 0056
ENCODING 86
SWIDTH 500 0
DWIDTH 15 0
BBX 13 20 1 0
BITMAP
F8F8
F8F8
3060
3060
3060
38E0
18C0
18C0
18C0
18C0
0D80
0D80
0D80
0D80
0500
0500
0700
0700
0700
0200
ENDCHAR
STARTCHAR 0057
ENCODING 87
SWIDTH 666 0
DWIDTH 20 0
BBX 18 20 1 0
BITMAP
F807C0
F807C0
300300
300300
300300
300300
100200
100200
180600
180600
180600
08C400
08C400
09E400
09E400
0B3C00
0F3C00
061800
061800
040800
ENDCHAR
STARTCHAR 0058
ENCODING 88
SWIDTH 600 0
DWIDTH 18 0
BBX 16 20 1 0
BITMAP
3E3C
3E3C
0C30
0660
0660
03C0
03C0
0180
0180
03C0
03C0
0660
0660
0C30
0C30
1818
3818
300C
F01F
F01F
ENDCHAR
STARTCHAR 0059
ENCODING 89
SWIDTH 533 0
DWIDTH 16 0
BBX 15 20 0 0
BITMAP
F83E
F83E
3038
1830
0C70
0E60
06E0
03C0
03C0
0180
0180
0180
0180
0180
0180
0180
0180
0180
07C0
07C0
ENDCHAR
STARTCHAR 005A
ENCODING 90
SWIDTH 433 0
DWIDTH 13 0
BBX 11 20 1 0
BITMAP
3FE0
3FE0
60C0
60C0
0180
0180
0300
0200
0600
0C00
0C00
1800
1800
3000
3000
6020
6060
C0E0
FFC0
FFC0
ENDCHAR
STARTCHAR 005B
ENCODING 91
SWIDTH 166 0
DWIDTH 5 0
BBX 4 27 0 -7
BITMAP
F0
F0
C0
C0
C0
C0
C0
C0
C0
C0
C0
C0
C0
C0
C0
C0
C0
C0
C0
C0
C0
C0
C0
C0
C0
F0
F0
ENDCHAR
STARTCHAR 005C
ENCODING 92
SWIDTH 300 0
DWIDTH 9 0
BBX 8 26 0 -6
BITMAP
C0
C0
60
60
60
60
30
30
30
10
18
18
18
08
0C
0C
0C
06
06
06
02
03
03
03
01
01
ENDCHAR
STARTCHAR 005D
ENCODING 93
SWIDTH 200 0
DWIDTH 6 0
BBX 4 27 1 -7
BITMAP
F0
F0
30
30
30
30
30
30
30
30
30
30
30
30
30
30
30
30
30
30
30
30
30
30
30
F0
F0
ENDCHAR
STARTCHAR 005E
ENCODING 94
SWIDTH 400 0
DWIDTH 12 0
BBX 11 10 1 9
BITMAP
0C00
0E00
1E00
1B00
3300
7180
61C0
C0C0
C060
8060
ENDCHAR
STARTCHAR 005F
ENCODING 95
SWIDTH 500 0
DWIDTH 15 0
BBX 15 2 0 -2
BITMAP
FFFE
FFFE
ENDCHAR
STARTCHAR 0060
ENCODING 96
SWIDTH 366 0
DWIDTH 11 0
BBX 9 6 1 14
BITMAP
C000
F000
3C00
0F00
0380
0080
ENDCHAR
STARTCHAR 0061
ENCODING 97
SWIDTH 400 0
DWIDTH 12 0
BBX 10 14 1 0
BITMAP
0700
0F80
08C0
00C0
00C0
00C0
1FC0
7FC0
E0C0
C0C0
C0C0
E1C0
7FC0
1EC0
ENDCHAR
STARTCHAR 0062
ENCODING 98
SWIDTH 666 0
DWIDTH 20 0
BBX 18 20 1 0
BITMAP
700000
F80000
CC0000
0C0000
0C0000
0C0000
0CF800
0FFE00
0F8700
0E0180
0C01C0
0C00C0
0C00C0
0C00C0
0C00C0
0C01C0
0C0380
0C0700
0FFE00
0FF800
ENDCHAR
STARTCHAR 0063
ENCODING 99
SWIDTH 566 0
DWIDTH 17 0
BBX 16 14 0 0
BITMAP
07E0
1FF8
3C1E
7007
6003
C006
C004
C000
C000
6000
7000
3C00
1FE0
03E0
ENDCHAR
STARTCHAR 0064
ENCODING 100
SWIDTH 666 0
DWIDTH 20 0
BBX 18 20 1 0
BITMAP
003C00
003C00
000C00
000C00
000C00
000C00
07CC00
1FFC00
383C00
701C00
600C00
C00C00
C00C00
C00C00
C00C00
E00C00
601C00
387CC0
1FEFC0
0F8380
ENDCHAR
STARTCHAR 0065
ENCODING 101
SWIDTH 600 0
DWIDTH 18 0
BBX 16 14 1 0
BITMAP
07E0
1FF8
3C1C
7006
E003
C003
C003
C003
FFFE
FFFE
6000
3800
1FC0
07C0
ENDCHAR
STARTCHAR 0066
ENCODING 102
SWIDTH 500 0
DWIDTH 15 0
BBX 13 20 1 0
BITMAP
07C0
0FE0
1C30
3818
3018
3018
FE00
FE00
3000
3000
3000
3000
3000
3000
3000
3000
3000
3000
7800
7800
ENDCHAR
STARTCHAR 0067
ENCODING 103
SWIDTH 800 0
DWIDTH 24 0
BBX 23 22 0 -5
BITMAP
0000F8
0003FC
00070E
007C06
03FE06
07831C
1E0118
380300
700300
600600
E00600
C01C00
C03800
E0E380
7F9FC0
3FFCC0
01F1C0
00E180
00E700
00CE00
00FC00
007000
ENDCHAR
STARTCHAR 0068
ENCODING 104
SWIDTH 533 0
DWIDTH 16 0
BBX 15 20 1 0
BITMAP
7000
F800
CC00
0C00
0C00
0C00
0DE0
0FF0
0F30
0E10
0E18
0C18
0C18
0C18
0C18
0C18
0C18
0C18
1E0E
1E0E
ENDCHAR
STARTCHAR 0069
ENCODING 105
SWIDTH 200 0
DWIDTH 6 0
BBX 5 21 1 1
BITMAP
18
18
30
30
60
60
00
E0
E0
60
60
60
60
60
60
60
60
60
60
F0
F0
ENDCHAR
STARTCHAR 006A
ENCODING 106
SWIDTH 266 0
DWIDTH 8 0
BBX 7 30 1 -8
BITMAP
06
0C
0C
08
18
18
00
38
38
18
18
18
18
18
18
18
18
18
18
18
18
18
18
18
18
30
30
60
E0
C0
ENDCHAR
STARTCHAR 006B
ENCODING 107
SWIDTH 600 0
DWIDTH 18 0
BBX 16 20 1 0
BITMAP
7000
F800
CC00
0C00
0C00
0C00
0FF8
0FFC
0C08
0C18
0C30
0C70
0DE0
0D80
0DC0
0CC0
0CE0
0C78
1E1F
1E07
ENDCHAR
STARTCHAR 006C
ENCODING 108
SWIDTH 300 0
DWIDTH 9 0
BBX 7 20 1 0
BITMAP
70
F8
CC
0C
0C
0C
0C
0C
0C
0C
0C
0C
0C
0C
0C
0C
0C
0C
1E
1E
ENDCHAR
STARTCHAR 006D
ENCODING 109
SWIDTH 600 0
DWIDTH 18 0
BBX 17 14 1 0
BITMAP
E63000
EE7000
7EF000
7BD800
731800
630800
630C00
610C00
618C00
618600
618600
618600
F0E380
F0E380
ENDCHAR
STARTCHAR 006E
ENCODING 110
SWIDTH 400 0
DWIDTH 12 0
BBX 11 14 1 0
BITMAP
E600
EE00
7E00
7B00
7300
6300
6300
6100
6180
6180
6180
6180
F0E0
F0E0
ENDCHAR
STARTCHAR 006F
ENCODING 111
SWIDTH 566 0
DWIDTH 17 0
BBX 15 14 1 0
BITMAP
07C0
1FF0
3838
701C
E00E
C006
C006
C006
C006
E00E
701C
3838
1FF0
07C0
ENDCHAR
STARTCHAR 0070
ENCODING 112
SWIDTH 600 0
DWIDTH 18 0
BBX 16 23 1 -9
BITMAP
71F0
FFFC
CF0C
0C06
0C07
0C03
0C03
0C03
0C03
0C07
0C06
0C1C
0FF8
0FF0
0C00
0C00
0C00
0C00
0C00
0C00
1800
3800
3000
ENDCHAR
STARTCHAR 0071
ENCODING 113
SWIDTH 533 0
DWIDTH 16 0
BBX 14 22 1 -9
BITMAP
0F98
1FF8
38F0
6030
E030
C030
C030
C030
C030
E030
6030
3870
1FF0
0FB0
0030
0030
0030
0030
0030
0038
001C
000C
ENDCHAR
STARTCHAR 0072
ENCODING 114
SWIDTH 466 0
DWIDTH 14 0
BBX 12 14 1 0
BITMAP
E3C0
EFE0
7E30
7830
7030
7060
6000
6000
6000
6000
6000
6000
F800
F800
ENDCHAR
STARTCHAR 0073
ENCODING 115
SWIDTH 500 0
DWIDTH 15 0
BBX 14 14 0 0
BITMAP
07E0
1FF8
381C
700C
600C
6000
7000
3800
0C00
0600
0600
0E00
FC00
7800
ENDCHAR
STARTCHAR 0074
ENCODING 116
SWIDTH 300 0
DWIDTH 9 0
BBX 8 19 0 0
BITMAP
70
70
30
30
30
FC
FC
30
30
30
30
30
30
30
30
30
31
1F
0E
ENDCHAR
STARTCHAR 0075
ENCODING 117
SWIDTH 566 0
DWIDTH 17 0
BBX 16 14 0 0
BITMAP
E078
F078
3018
3018
1018
1818
1818
1818
0818
0C18
0C18
0E39
07FF
03CF
ENDCHAR
STARTCHAR 0076
ENCODING 118
SWIDTH 466 0
DWIDTH 14 0
BBX 12 15 1 -2
BITMAP
F0F0
F0F0
2040
30C0
30C0
1080
1980
1980
1980
0F00
0F00
0F00
0600
0600
0600
ENDCHAR
STARTCHAR 0077
ENCODING 119
SWIDTH 600 0
DWIDTH 18 0
BBX 16 14 1 0
BITMAP
F00F
F00F
2184
318C
318C
118C
1198
1998
1998
0990
0FB0
0FF0
0660
0420
ENDCHAR
STARTCHAR 0078
ENCODING 120
SWIDTH 600 0
DWIDTH 18 0
BBX 17 14 1 0
BITMAP
70F000
F8F000
1C6000
0C4000
06C000
078000
078000
0D8000
0D8000
18C000
186000
307180
F83F80
F81E00
ENDCHAR
STARTCHAR 0079
ENCODING 121
SWIDTH 533 0
DWIDTH 16 0
BBX 14 22 1 -8
BITMAP
F03C
F03C
3030
3020
1860
18C0
0C80
0D80
07E0
07F0
0738
061C
000C
03EC
0FEC
1C0C
381C
3018
3038
38F0
1FE0
0F80
ENDCHAR
STARTCHAR 007A
ENCODING 122
SWIDTH 366 0
DWIDTH 11 0
BBX 9 14 1 0
BITMAP
FF00
FF00
8300
0600
0C00
0C00
1800
1800
3000
3000
6180
C180
FF80
FF80
ENDCHAR
STARTCHAR 007B
ENCODING 123
SWIDTH 200 0
DWIDTH 6 0
BBX 4 27 1 -7
BITMAP
F0
F0
C0
C0
C0
40
40
60
60
60
60
60
E0
C0
E0
60
60
60
60
60
60
C0
C0
C0
C0
F0
F0
ENDCHAR
STARTCHAR 007C
ENCODING 124
SWIDTH 133 0
DWIDTH 4 0
BBX 2 29 1 -8
BITMAP
C0
C0
C0
C0
C0
C0
C0
C0
C0
C0
C0
C0
C0
C0
C0
C0
C0
C0
C0
C0
C0
C0
C0
C0
C0
C0
C0
C0
C0
ENDCHAR
STARTCHAR 007D
ENCODING 125
SWIDTH 200 0
DWIDTH 6 0
BBX 5 27 0 -7
BITMAP
F0
F8
10
30
30
30
30
30
20
60
60
60
70
38
70
60
60
20
20
30
30
30
30
30
10
F8
F0
ENDCHAR
STARTCHAR 007E
ENCODING 126
SWIDTH 566 0
DWIDTH 17 0
BBX 16 4 1 8
BITMAP
3C00
FF87
C3FE
807C
ENDCHAR
STARTCHAR 00A0
ENCODING 160
SWIDTH 200 0
DWIDTH 6 0
BBX 0 0 0 0
BITMAP
ENDCHAR
STARTCHAR 00A1
ENCODING 161
SWIDTH 133 0
DWIDTH 4 0
BBX 3 21 0 -5
BITMAP
60
60
60
60
00
60
60
60
60
60
60
60
60
60
60
60
60
60
60
60
C0
ENDCHAR
STARTCHAR 00A2
ENCODING 162
SWIDTH 566 0
DWIDTH 17 0
BBX 15 22 0 -2
BITMAP
0008
000C
0018
07F8
1FF8
3C7E
7066
60C6
C0C6
C184
C300
C300
E600
6E00
7C00
3C00
1FE0
37C0
7000
6000
C000
C000
ENDCHAR
STARTCHAR 00A3
ENCODING 163
SWIDTH 600 0
DWIDTH 18 0
BBX 16 20 1 0
BITMAP
03F0
07FC
0E0E
1806
1802
1800
1800
1800
0C00
0C00
7FE0
7FE0
0600
0600
0600
0600
F603
FE03
FFFE
F3F8
ENDCHAR
STARTCHAR 00A4
ENCODING 164
SWIDTH 800 0
DWIDTH 24 0
BBX 23 20 1 0
BITMAP
007F06
01FFE6
07C0FC
0E003C
1C0018
180030
300030
300020
FFFF80
FFFF80
FFFF00
FFFF00
300000
300000
180000
1C0000
0E0000
078000
03F000
007000
ENDCHAR
STARTCHAR 00A5
ENCODING 165
SWIDTH 533 0
DWIDTH 16 0
BBX 15 20 0 0
BITMAP
F83E
F83E
3038
1830
1C70
0E60
06C0
07C0
7FFC
7FFC
7FFE
7FFE
0100
0180
0180
0180
0180
0180
07C0
07C0
ENDCHAR
STARTCHAR 00A6
ENCODING 166
SWIDTH 133 0
DWIDTH 4 0
BBX 2 29 1 -8
BITMAP
C0
C0
C0
C0
C0
C0
C0
C0
C0
C0
C0
C0
C0
C0
00
C0
C0
C0
C0
C0
C0
C0
C0
C0
C0
C0
C0
C0
C0
ENDCHAR
STARTCHAR 00A7
ENCODING 167
SWIDTH 366 0
DWIDTH 11 0
BBX 9 26 1 -6
BITMAP
1E00
3F00
7180
6000
4000
4000
4000
6000
D000
CC00
C600
C300
E300
6180
7180
3980
1D80
0780
0300
0300
0100
0100
0300
C700
7E00
3C00
ENDCHAR
STARTCHAR 00A8
ENCODING 168
SWIDTH 200 0
DWIDTH 6 0
BBX 4 2 1 15
BITMAP
F0
F0
ENDCHAR
STARTCHAR 00A9
ENCODING 169
SWIDTH 733 0
DWIDTH 22 0
BBX 21 20 0 0
BITMAP
01FC00
07FF00
0F0780
1CFDC0
33FF60
7703F0
6601B0
CC00D8
CC00D8
D800D8
D80198
D80398
CC0218
6C0030
660070
338060
3DE1C0
0F0780
07FF00
01FC00
ENDCHAR
STARTCHAR 00AA
ENCODING 170
SWIDTH 233 0
DWIDTH 7 0
BBX 5 8 1 13
BITMAP
70
78
58
78
F8
D8
F8
78
ENDCHAR
STARTCHAR 00AB
ENCODING 171
SWIDTH 266 0
DWIDTH 8 0
BBX 7 10 1 5
BITMAP
36
3C
6C
D8
F0
F0
D8
6C
3C
36
ENDCHAR
STARTCHAR 00AC
ENCODING 172
SWIDTH 466 0
DWIDTH 14 0
BBX 12 6 1 6
BITMAP
FFF0
FFF0
0030
0030
0030
0030
ENDCHAR
STARTCHAR 00AD
ENCODING 173
SWIDTH 233 0
DWIDTH 7 0
BBX 5 2 1 7
BITMAP
F8
F8
ENDCHAR
STARTCHAR 00AE
ENCODING 174
SWIDTH 366 0
DWIDTH 11 0
BBX 9 9 1 11
BITMAP
3E00
6300
FD80
9280
9480
9480
FF80
6300
3E00
ENDCHAR
STARTCHAR 00AF
ENCODING 175
SWIDTH 233 0
DWIDTH 7 0
BBX 5 2 1 15
BITMAP
F8
70
ENDCHAR
STARTCHAR 00B0
ENCODING 176
SWIDTH 200 0
DWIDTH 6 0
BBX 4 5 1 17
BITMAP
60
F0
F0
F0
60
ENDCHAR
STARTCHAR 00B1
ENCODING 177
SWIDTH 466 0
DWIDTH 14 0
BBX 12 16 1 1
BITMAP
0600
0600
0600
0600
0600
FFF0
FFF0
0600
0600
0600
0600
0600
0000
0000
FFF0
FFF0
ENDCHAR
STARTCHAR 00B2
ENCODING 178
SWIDTH 333 0
DWIDTH 10 0
BBX 8 12 1 10
BITMAP
3C
7E
E3
C3
C3
07
06
0C
18
12
3E
3C
ENDCHAR
STARTCHAR 00B3
ENCODING 179
SWIDTH 366 0
DWIDTH 11 0
BBX 10 12 0 10
BITMAP
1E00
3F00
2300
0F00
0F80
01C0
00C0
00C0
80C0
E180
7F80
3E00
ENDCHAR
STARTCHAR 00B4
ENCODING 180
SWIDTH 366 0
DWIDTH 11 0
BBX 9 6 1 14
BITMAP
0180
0780
1E00
7800
E000
8000
ENDCHAR
STARTCHAR 00B5
ENCODING 181
SWIDTH 533 0
DWIDTH 16 0
BBX 14 20 1 -6
BITMAP
F1E0
F1E0
3060
3060
3060
3060
3060
3060
3060
3060
3060
38E4
3FFC
37BC
3000
3000
3000
3000
E000
C000
ENDCHAR
STARTCHAR 00B6
ENCODING 182
SWIDTH 766 0
DWIDTH 23 0
BBX 22 29 0 -8
BITMAP
00FF00
07FFC0
0FFBE0
1FFB30
3FFB18
7FFB0C
7FFB0C
7FFB0C
FFFB0C
FFFB0C
FFFB18
FFFB30
7FFB00
7FFB00
3FFB00
3FFB00
1FFB00
07FB00
03FB00
001B00
001B00
001B00
001B00
001B00
001B00
001B00
001B00
001B00
001B00
ENDCHAR
STARTCHAR 00B7
ENCODING 183
SWIDTH 166 0
DWIDTH 5 0
BBX 4 4 0 7
BITMAP
60
F0
F0
60
ENDCHAR
STARTCHAR 00B8
ENCODING 184
SWIDTH 266 0
DWIDTH 8 0
BBX 7 8 0 -6
BITMAP
18
18
30
3C
3E
06
FE
78
ENDCHAR
STARTCHAR 00B9
ENCODING 185
SWIDTH 166 0
DWIDTH 5 0
BBX 4 11 1 11
BITMAP
60
E0
E0
60
60
60
60
60
60
F0
60
ENDCHAR
STARTCHAR 00BA
ENCODING 186
SWIDTH 333 0
DWIDTH 10 0
BBX 8 9 1 13
BITMAP
3C
7E
E7
C3
C3
C3
E7
7E
3C
ENDCHAR
STARTCHAR 00BB
ENCODING 187
SWIDTH 266 0
DWIDTH 8 0
BBX 7 10 1 5
BITMAP
B0
F8
F8
6C
3E
3E
6C
F8
F8
B0
ENDCHAR
STARTCHAR 00BC
ENCODING 188
SWIDTH 633 0
DWIDTH 19 0
BBX 18 21 0 -1
BITMAP
000040
3000C0
7001C0
F00380
300700
300E00
300C00
301B00
303B00
307F00
30EF00
31DB00
319B00
7B3300
073300
0E63C0
1C7FC0
387F80
300300
600780
E00780
ENDCHAR
STARTCHAR 00BD
ENCODING 189
SWIDTH 800 0
DWIDTH 24 0
BBX 23 21 0 0
BITMAP
000060
3000E0
7001C0
F00380
300700
300600
300C00
301DF0
303BFC
30770E
30EE06
30CC06
318C06
7B800C
07001C
0E0038
1C0060
1801C0
300384
7007FE
6007FC
ENDCHAR
STARTCHAR 00BE
ENCODING 190
SWIDTH 833 0
DWIDTH 25 0
BBX 23 21 1 -1
BITMAP
3E0006
7F000E
C3001C
070018
1F8030
0FC070
00E0F8
0031D8
0033F8
003378
C076D8
E0EED8
7FDD98
1F3998
00731E
0063FE
00C3FC
01C018
03803C
07003C
060000
ENDCHAR
STARTCHAR 00BF
ENCODING 191
SWIDTH 533 0
DWIDTH 16 0
BBX 15 20 0 -5
BITMAP
0300
0300
0300
0300
0300
0300
0300
0300
1F00
3C00
7000
E010
C01C
C00C
C006
E006
600E
381C
1FF8
07E0
ENDCHAR
STARTCHAR 00C0
ENCODING 192
SWIDTH 866 0
DWIDTH 26 0
BBX 25 27 1 0
BITMAP
0C000000
0F000000
03C00000
00F00000
00380000
00080000
00000000
007F8000
01FFE000
07C0F000
1E003000
38003000
30003000
60003000
60003000
C0003000
C0003000
C0003000
C0003000
C0003000
C0003000
60007000
7000F000
3801F000
1E07B980
0FFE1F80
01F80F00
ENDCHAR
STARTCHAR 00C1
ENCODING 193
SWIDTH 866 0
DWIDTH 26 0
BBX 25 27 1 0
BITMAP
00003000
0000F000
0003C000
000F0000
001C0000
00100000
00000000
007F8000
01FFE000
07C0F000
1E003000
38003000
30003000
60003000
60003000
C0003000
C0003000
C0003000
C0003000
C0003000
C0003000
60007000
7000F000
3801F000
1E07B980
0FFE1F80
01F80F00
ENDCHAR
STARTCHAR 00C2
ENCODING 194
SWIDTH 866 0
DWIDTH 26 0
BBX 25 27 1 0
BITMAP
001C0000
003E0000
00770000
00E38000
0181C000
01000000
00000000
007F8000
01FFE000
07C0F000
1E003000
38003000
30003000
60003000
60003000
C0003000
C0003000
C0003000
C0003000
C0003000
C0003000
60007000
7000F000
3801F000
1E07B980
0FFE1F80
01F80F00
ENDCHAR
STARTCHAR 00C3
ENCODING 195
SWIDTH 866 0
DWIDTH 26 0
BBX 25 25 1 0
BITMAP
00F0C000
01F8C000
019FC000
01070000
00000000
007F8000
01FFE000
07C0F000
1E003000
38003000
30003000
60003000
60003000
C0003000
C0003000
C0003000
C0003000
C0003000
C0003000
60007000
7000F000
3801F000
1E07B980
0FFE1F80
01F80F00
ENDCHAR
STARTCHAR 00C4
ENCODING 196
SWIDTH 866 0
DWIDTH 26 0
BBX 25 23 1 0
BITMAP
003C0000
003C0000
00000000
007F8000
01FFE000
07C0F000
1E003000
38003000
30003000
60003000
60003000
C0003000
C0003000
C0003000
C0003000
C0003000
C0003000
60007000
7000F000
3801F000
1E07B980
0FFE1F80
01F80F00
ENDCHAR
STARTCHAR 00C5
ENCODING 197
SWIDTH 833 0
DWIDTH 25 0
BBX 25 28 0 0
BITMAP
000E0000
001F0000
00318000
00318000
00318000
001F0000
000E0000
00000000
007F8000
01FFE000
07C0F000
1E003000
38003000
30003000
60003000
60003000
C0003000
C0003000
C0003000
C0003000
C0003000
C0003000
60007000
7000F000
3801F000
1E07B980
0FFE1F80
01F80F00
ENDCHAR
STARTCHAR 00C6
ENCODING 198
SWIDTH 766 0
DWIDTH 23 0
BBX 22 20 0 0
BITMAP
00FFE0
00FFE0
007830
007830
00D800
00D800
009800
019800
019800
031800
031800
061800
061800
0C1800
0FFFC0
1FFFC4
18180C
30180C
F83FF8
F83FF8
ENDCHAR
STARTCHAR 00C7
ENCODING 199
SWIDTH 733 0
DWIDTH 22 0
BBX 20 27 1 -6
BITMAP
01FC00
07FF00
0F0380
1C01C0
380060
700070
600030
E00030
C00030
C00030
C00060
C000E0
C001C0
C00180
600000
600000
300000
180000
0E0000
03E000
03E000
030000
078000
03C000
00C000
1FC000
0F8000
ENDCHAR
STARTCHAR 00C8
ENCODING 200
SWIDTH 466 0
DWIDTH 14 0
BBX 12 27 1 0
BITMAP
C000
F000
3C00
0F00
0380
0080
0000
FF80
FF80
60C0
60C0
6000
6000
6000
6000
6000
6000
6000
6000
6000
6000
7F00
7F10
6030
6030
FFE0
FFE0
ENDCHAR
STARTCHAR 00C9
ENCODING 201
SWIDTH 533 0
DWIDTH 16 0
BBX 14 27 1 0
BITMAP
000C
003C
00F0
03C0
0700
0400
0000
FF80
FF80
60C0
60C0
6000
6000
6000
6000
6000
6000
6000
6000
6000
6000
7F00
7F10
6030
6030
FFE0
FFE0
ENDCHAR
STARTCHAR 00CA
ENCODING 202
SWIDTH 466 0
DWIDTH 14 0
BBX 12 27 1 0
BITMAP
0600
0F00
1980
70E0
6070
4020
0000
FF80
FF80
60C0
60C0
6000
6000
6000
6000
6000
6000
6000
6000
6000
6000
7F00
7F10
6030
6030
FFE0
FFE0
ENDCHAR
STARTCHAR 00CB
ENCODING 203
SWIDTH 466 0
DWIDTH 14 0
BBX 12 23 1 0
BITMAP
1B00
1B00
0000
FF80
FF80
60C0
60C0
6000
6000
6000
6000
6000
6000
6000
6000
6000
6000
7F00
7F10
6030
6030
FFE0
FFE0
ENDCHAR
STARTCHAR 00CC
ENCODING 204
SWIDTH 200 0
DWIDTH 6 0
BBX 11 27 -6 0
BITMAP
E000
7800
1C00
0700
03C0
00C0
0000
03E0
03E0
00C0
00C0
00C0
00C0
00C0
00C0
00C0
00C0
00C0
00C0
00C0
00C0
00C0
00C0
00C0
00C0
03E0
03E0
ENDCHAR
STARTCHAR 00CD
ENCODING 205
SWIDTH 200 0
DWIDTH 6 0
BBX 12 27 0 0
BITMAP
0070
01E0
0380
0F00
3C00
3000
0000
F800
F800
3000
3000
3000
3000
3000
3000
3000
3000
3000
3000
3000
3000
3000
3000
3000
3000
F800
F800
ENDCHAR
STARTCHAR 00CE
ENCODING 206
SWIDTH 200 0
DWIDTH 6 0
BBX 11 27 -3 0
BITMAP
0400
0600
1F00
3B80
71C0
E0E0
C060
1F00
1F00
0600
0600
0600
0600
0600
0600
0600
0600
0600
0600
0600
0600
0600
0600
0600
0600
1F00
1F00
ENDCHAR
STARTCHAR 00CF
ENCODING 207
SWIDTH 200 0
DWIDTH 6 0
BBX 5 23 0 0
BITMAP
D8
D8
00
F8
F8
30
30
30
30
30
30
30
30
30
30
30
30
30
30
30
30
F8
F8
ENDCHAR
STARTCHAR 00D0
ENCODING 208
SWIDTH 833 0
DWIDTH 25 0
BBX 23 20 1 0
BITMAP
0FFC00
7FFF80
7803E0
180070
180038
18001C
18000C
180006
180006
180006
FF0006
FF0006
18000E
18000C
18001C
180038
1800F0
D807C0
FFFF00
1FF800
ENDCHAR
STARTCHAR 00D1
ENCODING 209
SWIDTH 466 0
DWIDTH 14 0
BBX 12 25 1 0
BITMAP
3E30
7FF0
63E0
0000
C000
F0F0
38F0
3660
33E0
30E0
3060
3060
3060
3060
3060
3060
3060
3060
3060
3060
3060
3060
3060
7860
7860
ENDCHAR
STARTCHAR 00D2
ENCODING 210
SWIDTH 766 0
DWIDTH 23 0
BBX 21 27 1 0
BITMAP
380000
1E0000
078000
01C000
00F000
003000
01FC00
07FF00
0F0780
1C01C0
3800E0
700070
600030
E00038
C00018
C00018
C00018
C00018
C00018
E00038
600030
700070
3000E0
1C01C0
0F0780
07FF00
01FC00
ENDCHAR
STARTCHAR 00D3
ENCODING 211
SWIDTH 766 0
DWIDTH 23 0
BBX 21 27 1 0
BITMAP
0000C0
0003C0
000F00
003C00
007000
004000
01FC00
07FF00
0F0780
1C01C0
3800E0
700070
600030
E00038
C00018
C00018
C00018
C00018
C00018
E00038
600030
700070
3000E0
1C01C0
0F0780
07FF00
01FC00
ENDCHAR
STARTCHAR 00D4
ENCODING 212
SWIDTH 766 0
DWIDTH 23 0
BBX 21 27 1 0
BITMAP
007000
00F800
01DC00
038E00
070700
060300
01FC00
07FF00
0F0780
1C01C0
3800E0
700070
600030
E00038
C00018
C00018
C00018
C00018
C00018
E00038
600030
700070
3000E0
1C01C0
0F0780
07FF00
01FC00
ENDCHAR
STARTCHAR 00D5
ENCODING 213
SWIDTH 766 0
DWIDTH 23 0
BBX 21 25 1 0
BITMAP
03C300
07E300
067E00
041C00
01FC00
07FF00
0F0780
1C01C0
3800E0
700070
600030
E00038
C00018
C00018
C00018
C00018
C00018
E00038
600030
700070
3000E0
1C01C0
0F0780
07FF00
01FC00
ENDCHAR
STARTCHAR 00D6
ENCODING 214
SWIDTH 766 0
DWIDTH 23 0
BBX 21 23 1 0
BITMAP
00D800
00D800
01FC00
07FF00
0F0780
1C01C0
3800E0
700070
600030
E00038
C00018
C00018
C00018
C00018
C00018
E00038
600030
700070
3000E0
1C01C0
0F0780
07FF00
01FC00
ENDCHAR
STARTCHAR 00D7
ENCODING 215
SWIDTH 400 0
DWIDTH 12 0
BBX 10 11 1 4
BITMAP
8040
C0C0
E180
7300
3E00
1C00
1E00
3700
6380
C1C0
80C0
ENDCHAR
STARTCHAR 00D8
ENCODING 216
SWIDTH 766 0
DWIDTH 23 0
BBX 21 21 1 0
BITMAP
01FC00
07FF60
0F03C0
1C00C0
380160
700230
600430
E00818
C00818
C01018
C02018
C04018
C08018
C10038
620030
620070
3400E0
1801C0
1E0780
37FF00
01FC00
ENDCHAR
STARTCHAR 00D9
ENCODING 217
SWIDTH 500 0
DWIDTH 15 0
BBX 13 27 1 0
BITMAP
E000
7800
1E00
0780
01C0
0040
0000
F078
F078
6030
6030
6030
6030
6030
6030
6030
6030
6030
6030
6030
6030
6030
6030
7070
38E0
1FC0
0F80
ENDCHAR
STARTCHAR 00DA
ENCODING 218
SWIDTH 500 0
DWIDTH 15 0
BBX 14 27 1 0
BITMAP
000C
003C
00F0
03C0
0700
0400
0000
F078
F078
6030
6030
6030
6030
6030
6030
6030
6030
6030
6030
6030
6030
6030
6030
7070
38E0
1FC0
0F80
ENDCHAR
STARTCHAR 00DB
ENCODING 219
SWIDTH 500 0
DWIDTH 15 0
BBX 13 27 1 0
BITMAP
0200
0F80
1DC0
38E0
7070
6030
0000
F078
F078
6030
6030
6030
6030
6030
6030
6030
6030
6030
6030
6030
6030
6030
6030
7070
38E0
1FC0
0F80
ENDCHAR
STARTCHAR 00DC
ENCODING 220
SWIDTH 500 0
DWIDTH 15 0
BBX 13 23 1 0
BITMAP
06C0
06C0
0000
F078
F078
6030
6030
6030
6030
6030
6030
6030
6030
6030
6030
6030
6030
6030
6030
7070
38E0
1FC0
0F80
ENDCHAR
STARTCHAR 00DD
ENCODING 221
SWIDTH 566 0
DWIDTH 17 0
BBX 16 27 1 0
BITMAP
0007
001E
0038
00F0
03C0
0300
0000
F03C
F03C
3030
3870
1860
0CC0
0FC0
0780
0780
0300
0300
0300
0300
0300
0300
0300
0300
0300
0780
0780
ENDCHAR
STARTCHAR 00DE
ENCODING 222
SWIDTH 500 0
DWIDTH 15 0
BBX 14 20 0 0
BITMAP
7800
7800
3000
3000
3FC0
7FF0
F038
300C
300C
300C
3038
3FF0
3FC0
3000
3000
3000
3000
3000
7800
7800
ENDCHAR
STARTCHAR 00DF
ENCODING 223
SWIDTH 500 0
DWIDTH 15 0
BBX 13 25 1 -5
BITMAP
07C0
0FF0
1C30
3818
3018
3018
F038
F070
30E0
33C0
3700
3600
3600
3700
3380
30E0
3060
3030
3030
3060
31E0
3FC0
3F00
3000
3000
ENDCHAR
STARTCHAR 00E0
ENCODING 224
SWIDTH 400 0
DWIDTH 12 0
BBX 10 20 1 0
BITMAP
6000
7000
1C00
0E00
0380
0180
0700
0F80
08C0
00C0
00C0
00C0
1FC0
7FC0
E0C0
C0C0
C0C0
E1C0
7FC0
1EC0
ENDCHAR
STARTCHAR 00E1
ENCODING 225
SWIDTH 433 0
DWIDTH 13 0
BBX 14 20 1 0
BITMAP
001C
0078
01E0
0780
0E00
0800
0380
07C0
0460
0060
0060
0060
1FE0
7FE0
E060
C060
C060
E0E0
7FE0
1F60
ENDCHAR
STARTCHAR 00E2
ENCODING 226
SWIDTH 400 0
DWIDTH 12 0
BBX 13 20 1 0
BITMAP
0380
07C0
0EE0
1C70
3038
2000
0700
0F80
08C0
00C0
00C0
00C0
1FC0
7FC0
E0C0
C0C0
C0C0
E1C0
7FC0
1EC0
ENDCHAR
STARTCHAR 00E3
ENCODING 227
SWIDTH 400 0
DWIDTH 12 0
BBX 12 18 1 0
BITMAP
3C30
7FF0
63E0
0000
0700
0F80
08C0
00C0
00C0
00C0
1FC0
7FC0
E0C0
C0C0
C0C0
E1C0
7FC0
1EC0
ENDCHAR
STARTCHAR 00E4
ENCODING 228
SWIDTH 400 0
DWIDTH 12 0
BBX 10 17 1 0
BITMAP
06C0
06C0
0000
0700
0F80
08C0
00C0
00C0
00C0
1FC0
7FC0
E0C0
C0C0
C0C0
E1C0
7FC0
1EC0
ENDCHAR
STARTCHAR 00E5
ENCODING 229
SWIDTH 433 0
DWIDTH 13 0
BBX 12 22 0 0
BITMAP
03C0
07E0
0E70
0C30
0C30
0E70
07E0
03C0
01C0
03E0
0230
0030
0030
0030
1FF0
7FF0
F030
C030
C030
E070
7FF0
1FB0
ENDCHAR
STARTCHAR 00E6
ENCODING 230
SWIDTH 933 0
DWIDTH 28 0
BBX 27 14 0 0
BITMAP
01C0FC00
03E7FF00
063F0780
003C01C0
003800E0
00300060
1FF00060
7FF00060
F03FFFC0
C03FFFC0
C0380000
E07E0000
7FE7F000
1F81F000
ENDCHAR
STARTCHAR 00E7
ENCODING 231
SWIDTH 566 0
DWIDTH 17 0
BBX 16 20 0 -6
BITMAP
07E0
1FF8
3C1E
7007
6003
C006
C004
C000
C000
6000
7000
3C00
1FE0
07E0
0600
0F00
0F80
0180
3F80
1F00
ENDCHAR
STARTCHAR 00E8
ENCODING 232
SWIDTH 600 0
DWIDTH 18 0
BBX 16 20 1 0
BITMAP
3000
3C00
0F00
03C0
00F0
0020
07E0
1FF8
3C1C
7006
E007
C003
C003
C003
FFFE
FFFE
6000
3800
1FC0
07C0
ENDCHAR
STARTCHAR 00E9
ENCODING 233
SWIDTH 600 0
DWIDTH 18 0
BBX 16 20 1 0
BITMAP
0006
001E
0078
01E0
0380
0200
07E0
1FF8
3C1C
7006
E007
C003
C003
C003
FFFE
FFFE
6000
3800
1FC0
07C0
ENDCHAR
STARTCHAR 00EA
ENCODING 234
SWIDTH 600 0
DWIDTH 18 0
BBX 16 20 1 0
BITMAP
0180
03C0
0770
0E38
1C1C
100C
07E0
1FF8
3C1C
7006
E007
C003
C003
C003
FFFE
FFFE
6000
3800
1FC0
07C0
ENDCHAR
STARTCHAR 00EB
ENCODING 235
SWIDTH 600 0
DWIDTH 18 0
BBX 16 17 1 0
BITMAP
0360
0360
0000
07E0
1FF8
3C1C
7006
E007
C003
C003
C003
FFFE
FFFE
6000
3800
1FC0
07C0
ENDCHAR
STARTCHAR 00EC
ENCODING 236
SWIDTH 200 0
DWIDTH 6 0
BBX 11 20 -6 0
BITMAP
C000
F000
3C00
0F00
0380
0080
01C0
01C0
00C0
00C0
00C0
00C0
00C0
00C0
00C0
00C0
00C0
00C0
01E0
01E0
ENDCHAR
STARTCHAR 00ED
ENCODING 237
SWIDTH 200 0
DWIDTH 6 0
BBX 10 20 1 0
BITMAP
00C0
03C0
0F00
3C00
7000
4000
E000
E000
6000
6000
6000
6000
6000
6000
6000
6000
6000
6000
F000
F000
ENDCHAR
STARTCHAR 00EE
ENCODING 238
SWIDTH 200 0
DWIDTH 6 0
BBX 11 20 -3 0
BITMAP
0600
1F00
3B80
70C0
E060
4020
0E00
0E00
0600
0600
0600
0600
0600
0600
0600
0600
0600
0600
0F00
0F00
ENDCHAR
STARTCHAR 00EF
ENCODING 239
SWIDTH 200 0
DWIDTH 6 0
BBX 5 17 0 0
BITMAP
D8
D8
00
70
70
30
30
30
30
30
30
30
30
30
30
78
78
ENDCHAR
STARTCHAR 00F0
ENCODING 240
SWIDTH 500 0
DWIDTH 15 0
BBX 13 20 1 0
BITMAP
0C60
0FE0
03C0
0FC0
0C60
0030
0FB0
3FD0
70F8
6038
E038
C018
C018
C018
C018
E030
6030
30E0
3FC0
0F80
ENDCHAR
STARTCHAR 00F1
ENCODING 241
SWIDTH 433 0
DWIDTH 13 0
BBX 11 18 1 0
BITMAP
7C20
FFE0
C7C0
0000
E600
EE00
7E00
7B00
7300
6300
6300
6100
6180
6180
6180
6180
F0E0
F0E0
ENDCHAR
STARTCHAR 00F2
ENCODING 242
SWIDTH 566 0
DWIDTH 17 0
BBX 15 20 1 0
BITMAP
7000
3C00
0F00
03C0
00E0
0020
07C0
1FF0
3838
701C
E00E
C006
C006
C006
C006
E00E
701C
3838
1FF0
07C0
ENDCHAR
STARTCHAR 00F3
ENCODING 243
SWIDTH 566 0
DWIDTH 17 0
BBX 15 21 1 0
BITMAP
000C
003C
00F0
03C0
0700
0400
0000
07C0
1FF0
3838
701C
E00E
C006
C006
C006
C006
E00E
701C
3838
1FF0
07C0
ENDCHAR
STARTCHAR 00F4
ENCODING 244
SWIDTH 566 0
DWIDTH 17 0
BBX 15 20 1 0
BITMAP
0380
07C0
0EE0
1C70
3838
3018
07C0
1FF0
3838
701C
E00E
C006
C006
C006
C006
E00E
701C
3838
1FF0
07C0
ENDCHAR
STARTCHAR 00F5
ENCODING 245
SWIDTH 566 0
DWIDTH 17 0
BBX 15 18 1 0
BITMAP
1F08
3FF8
30F0
0000
07C0
1FF0
3838
701C
E00E
C006
C006
C006
C006
E00E
701C
3838
1FF0
07C0
ENDCHAR
STARTCHAR 00F6
ENCODING 246
SWIDTH 566 0
DWIDTH 17 0
BBX 15 17 1 0
BITMAP
06C0
06C0
0000
07C0
1FF0
3838
701C
E00E
C006
C006
C006
C006
E00E
701C
3838
1FF0
07C0
ENDCHAR
STARTCHAR 00F7
ENCODING 247
SWIDTH 400 0
DWIDTH 12 0
BBX 10 8 1 6
BITMAP
1C00
1C00
1C00
FFC0
FFC0
1C00
1C00
1C00
ENDCHAR
STARTCHAR 00F8
ENCODING 248
SWIDTH 566 0
DWIDTH 17 0
BBX 15 14 1 0
BITMAP
07C6
1FFE
3C18
702C
E044
C086
C106
C206
C406
480E
701C
3078
FFF0
C7C0
ENDCHAR
STARTCHAR 00F9
ENCODING 249
SWIDTH 566 0
DWIDTH 17 0
BBX 16 20 0 0
BITMAP
3000
1C00
0F00
03C0
00F0
0030
E078
F078
3018
3018
1018
1818
1818
1818
0818
0C18
0C18
0E39
07FF
03CF
ENDCHAR
STARTCHAR 00FA
ENCODING 250
SWIDTH 566 0
DWIDTH 17 0
BBX 16 20 0 0
BITMAP
0006
001E
0078
01E0
0380
0200
E078
F078
3018
3018
1018
1818
1818
1818
0818
0C18
0C18
0E39
07FF
03CF
ENDCHAR
STARTCHAR 00FB
ENCODING 251
SWIDTH 566 0
DWIDTH 17 0
BBX 16 20 0 0
BITMAP
0300
0780
0CE0
3870
3038
2010
E078
F078
3018
3018
1018
1818
1818
1818
0818
0C18
0C18
0E39
07FF
03CF
ENDCHAR
STARTCHAR 00FC
ENCODING 252
SWIDTH 566 0
DWIDTH 17 0
BBX 16 17 0 0
BITMAP
02C0
03C0
0000
E078
F078
3018
3018
1018
1818
1818
1818
0818
0C18
0C18
0E39
07FF
03CF
ENDCHAR
STARTCHAR 00FD
ENCODING 253
SWIDTH 566 0
DWIDTH 17 0
BBX 15 28 1 -8
BITMAP
0006
001E
0078
01E0
0380
0200
F01E
F01E
3018
3030
1820
1860
0CC0
0480
07F0
03F8
031C
060C
0006
03E6
0FE6
1C06
380E
300C
3018
3878
1FE0
0F80
ENDCHAR
STARTCHAR 00FE
ENCODING 254
SWIDTH 600 0
DWIDTH 18 0
BBX 16 29 1 -9
BITMAP
7000
F800
CC00
0C00
0C00
0C00
0DF0
0FFC
0E0E
0C06
0C07
0C03
0C03
0C03
0C03
0C07
0C06
0C1C
0FF8
0FF0
0C00
0C00
0C00
0C00
0C00
0C00
1800
3800
3000
ENDCHAR
STARTCHAR 00FF
ENCODING 255
SWIDTH 566 0
DWIDTH 17 0
BBX 15 24 1 -8
BITMAP
06C0
06C0
F01E
F01E
3018
3030
1820
1860
0CC0
0480
07F0
03F8
031C
060C
0006
03E6
0FE6
1C06
380E
300C
3018
3878
1FE0
0F80
ENDCHAR
STARTCHAR 0131
ENCODING 305
SWIDTH 200 0
DWIDTH 6 0
BBX 4 14 1 0
BITMAP
E0
E0
60
60
60
60
60
60
60
60
60
60
F0
F0
ENDCHAR
STARTCHAR 0141
ENCODING 321
SWIDTH 366 0
DWIDTH 11 0
BBX 10 20 1 0
BITMAP
7800
7C00
3000
3000
3000
3000
3000
3000
3000
3300
3F00
7C00
F000
3000
3000
30C0
30C0
3180
7F80
7F00
ENDCHAR
STARTCHAR 0142
ENCODING 322
SWIDTH 333 0
DWIDTH 10 0
BBX 9 20 1 0
BITMAP
7000
F800
CC00
0C00
0C00
0C00
0C00
0D00
0F80
1E00
7C00
2C00
0C00
0C00
0C00
0C00
0C00
0C00
1E00
1E00
ENDCHAR
STARTCHAR 0152
ENCODING 338
SWIDTH 1000 0
DWIDTH 30 0
BBX 28 20 1 0
BITMAP
01FC0000
07FFFF80
0F07E080
1C00E0C0
30006000
70006000
60006000
C0006000
C0006000
C0006000
C0006000
C0006000
C0006000
60006000
60007F00
30007F10
1C00E030
0F03E030
07FFFFE0
01FC0000
ENDCHAR
STARTCHAR 0153
ENCODING 339
SWIDTH 966 0
DWIDTH 29 0
BBX 28 14 0 0
BITMAP
07E03800
1FFBFF00
3C1F01C0
700E0060
600C0030
C0180030
C0180030
C0180030
C01FFFE0
600FFFE0
700C0000
3C1F0000
1FFBF800
07E03800
ENDCHAR
STARTCHAR 0160
ENCODING 352
SWIDTH 633 0
DWIDTH 19 0
BBX 19 26 0 0
BITMAP
031800
031800
01B000
01B000
00E000
004000
03F800
0FFE00
3E0780
7001C0
E000E0
C00060
C00060
C00060
C00060
600000
380000
1C0000
060000
030000
018000
018000
018000
C38000
7F0000
3C0000
ENDCHAR
STARTCHAR 0161
ENCODING 353
SWIDTH 500 0
DWIDTH 15 0
BBX 13 20 1 0
BITMAP
0840
0CC0
0CC0
0780
0780
0300
0FC0
3FF0
7838
E008
C008
C000
6000
3800
1C00
0600
0600
0E00
FC00
7800
ENDCHAR
STARTCHAR 0178
ENCODING 376
SWIDTH 500 0
DWIDTH 15 0
BBX 14 22 1 0
BITMAP
0D80
0D80
F03C
F03C
3030
3870
1860
0CC0
0CC0
0780
0780
0300
0300
0300
0300
0300
0300
0300
0300
0300
0780
0780
ENDCHAR
STARTCHAR 017D
ENCODING 381
SWIDTH 433 0
DWIDTH 13 0
BBX 11 27 1 0
BITMAP
0840
0CC0
0DC0
0780
0700
0300
0000
3FE0
3FE0
30C0
20C0
0180
0180
0300
0300
0600
0600
0C00
0C00
1800
1800
3000
3020
6060
C060
FFC0
FFC0
ENDCHAR
STARTCHAR 017E
ENCODING 382
SWIDTH 366 0
DWIDTH 11 0
BBX 9 20 1 0
BITMAP
6300
3300
3600
1E00
1C00
0C00
FF00
FF00
C300
0600
0600
0C00
1800
1800
3000
3000
6180
6180
FF80
FF80
ENDCHAR
STARTCHAR 0192
ENCODING 402
SWIDTH 366 0
DWIDTH 11 0
BBX 14 29 -4 -9
BITMAP
001C
007C
0060
00C0
00C0
0180
0180
0180
07C0
07C0
0300
0300
0300
0300
0300
0200
0600
0600
0600
0600
0600
0600
0C00
0C00
1800
1800
3000
E000
C000
ENDCHAR
STARTCHAR 02C6
ENCODING 710
SWIDTH 400 0
DWIDTH 12 0
BBX 11 6 1 14
BITMAP
0C00
1E00
3380
E1C0
C0E0
8040
ENDCHAR
STARTCHAR 02C7
ENCODING 711
SWIDTH 266 0
DWIDTH 8 0
BBX 7 6 0 14
BITMAP
C6
C6
6C
6C
38
10
ENDCHAR
STARTCHAR 02C9
ENCODING 713
SWIDTH 233 0
DWIDTH 7 0
BBX 5 2 1 15
BITMAP
F8
70
ENDCHAR
STARTCHAR 02D8
ENCODING 728
SWIDTH 366 0
DWIDTH 11 0
BBX 9 5 1 15
BITMAP
8080
8180
E380
7F00
3E00
ENDCHAR
STARTCHAR 02D9
ENCODING 729
SWIDTH 133 0
DWIDTH 4 0
BBX 3 3 0 15
BITMAP
E0
E0
E0
ENDCHAR
STARTCHAR 02DA
ENCODING 730
SWIDTH 266 0
DWIDTH 8 0
BBX 6 8 1 14
BITMAP
30
78
CC
CC
CC
CC
78
30
ENDCHAR
STARTCHAR 02DB
ENCODING 731
SWIDTH 233 0
DWIDTH 7 0
BBX 6 6 0 -5
BITMAP
30
70
C0
C0
EC
7C
ENDCHAR
STARTCHAR 02DC
ENCODING 732
SWIDTH 433 0
DWIDTH 13 0
BBX 11 3 1 14
BITMAP
7860
FFE0
C7C0
ENDCHAR
STARTCHAR 02DD
ENCODING 733
SWIDTH 266 0
DWIDTH 8 0
BBX 6 6 1 14
BITMAP
3C
7C
78
D8
F0
B0
ENDCHAR
STARTCHAR 037E
ENCODING 894
SWIDTH 200 0
DWIDTH 6 0
BBX 4 14 1 -3
BITMAP
60
F0
F0
60
00
00
00
00
60
F0
F0
70
E0
E0
ENDCHAR
STARTCHAR 0394
ENCODING 916
SWIDTH 666 0
DWIDTH 20 0
BBX 19 21 1 1
BITMAP
00C000
00E000
01E000
01A000
033000
031000
021800
061800
060C00
0C0C00
0C0600
180600
180300
300300
300100
200180
600180
4000C0
C000C0
FFFFE0
FFFFE0
ENDCHAR
STARTCHAR 03A9
ENCODING 937
SWIDTH 800 0
DWIDTH 24 0
BBX 22 20 1 0
BITMAP
01FC00
07FF80
1F03E0
3800F0
700030
600038
E00018
C0001C
C0000C
C0000C
C00018
600018
600018
300070
1C00E0
0F03C0
83870C
81860C
FF87FC
FF87FC
ENDCHAR
STARTCHAR 03BC
ENCODING 956
SWIDTH 533 0
DWIDTH 16 0
BBX 15 20 0 -6
BITMAP
70F0
70F0
3030
3030
3030
3030
3030
3030
3030
3030
3030
3872
3FFE
379E
3000
3000
3000
3000
E000
C000
ENDCHAR
STARTCHAR 03C0
ENCODING 960
SWIDTH 600 0
DWIDTH 18 0
BBX 16 14 1 0
BITMAP
3FFE
7FFE
EC30
CC30
8C30
0C30
0C30
0C30
0C30
0C30
1C33
1833
383F
301E
ENDCHAR
STARTCHAR 2013
ENCODING 8211
SWIDTH 533 0
DWIDTH 16 0
BBX 14 2 1 7
BITMAP
FFFC
FFFC
ENDCHAR
STARTCHAR 2014
ENCODING 8212
SWIDTH 1000 0
DWIDTH 30 0
BBX 29 2 1 7
BITMAP
FFFFFFF8
FFFFFFF8
ENDCHAR
STARTCHAR 2018
ENCODING 8216
SWIDTH 166 0
DWIDTH 5 0
BBX 4 6 0 16
BITMAP
70
E0
C0
F0
F0
60
ENDCHAR
STARTCHAR 2019
ENCODING 8217
SWIDTH 200 0
DWIDTH 6 0
BBX 4 7 1 15
BITMAP
E0
F0
F0
F0
30
E0
C0
ENDCHAR
STARTCHAR 201A
ENCODING 8218
SWIDTH 200 0
DWIDTH 6 0
BBX 4 6 1 -3
BITMAP
E0
F0
F0
F0
E0
C0
ENDCHAR
STARTCHAR 201C
ENCODING 8220
SWIDTH 333 0
DWIDTH 10 0
BBX 9 6 0 16
BITMAP
7380
E700
E700
F780
F780
6300
ENDCHAR
STARTCHAR 201D
ENCODING 8221
SWIDTH 333 0
DWIDTH 10 0
BBX 8 7 1 15
BITMAP
EE
FF
FF
FF
33
EE
CC
ENDCHAR
STARTCHAR 201E
ENCODING 8222
SWIDTH 333 0
DWIDTH 10 0
BBX 8 6 1 -3
BITMAP
EE
FF
FF
FF
EE
CC
ENDCHAR
STARTCHAR 2020
ENCODING 8224
SWIDTH 333 0
DWIDTH 10 0
BBX 9 24 1 -4
BITMAP
1C00
1C00
1C00
0800
EB80
FF80
EB80
0800
0800
0800
1C00
1C00
1C00
1C00
1C00
1C00
0C00
0800
0800
0800
0800
0800
0800
0800
ENDCHAR
STARTCHAR 2021
ENCODING 8225
SWIDTH 333 0
DWIDTH 10 0
BBX 9 24 1 -4
BITMAP
1C00
1C00
1800
1800
DB80
FF80
EB80
1800
1800
1800
1800
1800
1800
1800
1800
1800
1800
FF80
FF80
DB80
1800
1800
1C00
3C00
ENDCHAR
STARTCHAR 2022
ENCODING 8226
SWIDTH 200 0
DWIDTH 6 0
BBX 5 5 0 5
BITMAP
70
F8
F8
F8
70
ENDCHAR
STARTCHAR 2026
ENCODING 8230
SWIDTH 466 0
DWIDTH 14 0
BBX 12 3 1 0
BITMAP
FFF0
FFF0
FFF0
ENDCHAR
STARTCHAR 2030
ENCODING 8240
SWIDTH 1100 0
DWIDTH 33 0
BBX 32 20 0 0
BITMAP
1FFF0000
3FFF0000
71C60000
E0C60000
C06C0000
C06C0000
C0780000
C07BE078
60F7F0FC
71FE39CE
3FBC1986
1F780F03
00780F03
00D80F03
00D80F03
01980F03
018C1986
030E39CE
0307F0FC
0203E078
ENDCHAR
STARTCHAR 2039
ENCODING 8249
SWIDTH 200 0
DWIDTH 6 0
BBX 4 10 1 5
BITMAP
30
30
60
C0
C0
C0
C0
60
30
30
ENDCHAR
STARTCHAR 203A
ENCODING 8250
SWIDTH 200 0
DWIDTH 6 0
BBX 4 10 1 5
BITMAP
80
C0
E0
60
30
30
60
E0
C0
80
ENDCHAR
STARTCHAR 2044
ENCODING 8260
SWIDTH 633 0
DWIDTH 19 0
BBX 18 21 1 0
BITMAP
0000C0
0001C0
000380
000700
000E00
000C00
001800
003000
007000
00E000
01C000
038000
030000
060000
0C0000
1C0000
380000
700000
E00000
C00000
800000
ENDCHAR
STARTCHAR 20AC
ENCODING 8364
SWIDTH 800 0
DWIDTH 24 0
BBX 23 20 1 0
BITMAP
007F06
01FFE6
07C0FC
0E003C
1C0018
180030
300030
300020
FFFF80
FFFF80
FFFF00
FFFF00
300000
300000
180000
1C0000
0E0000
078000
03F000
007000
ENDCHAR
STARTCHAR 2122
ENCODING 8482
SWIDTH 633 0
DWIDTH 19 0
BBX 18 11 1 9
BITMAP
FFC0C0
FF6180
DB7380
187F80
187F80
186D80
186180
186180
186180
18F3C0
3CF3C0
ENDCHAR
STARTCHAR 2126
ENCODING 8486
SWIDTH 800 0
DWIDTH 24 0
BBX 22 20 1 0
BITMAP
01FC00
07FF80
1F03E0
3800F0
700030
600038
E00018
C0001C
C0000C
C0000C
C00018
600018
600018
300070
1C00E0
0F03C0
83870C
81860C
FF87FC
FF87FC
ENDCHAR
STARTCHAR 2202
ENCODING 8706
SWIDTH 500 0
DWIDTH 15 0
BBX 13 21 1 -1
BITMAP
0380
0FE0
3870
7030
0018
0018
0018
0798
0FF8
1C38
3818
7008
6010
E010
C010
C020
C020
C040
E0C0
7380
3F00
ENDCHAR
STARTCHAR 2206
ENCODING 8710
SWIDTH 666 0
DWIDTH 20 0
BBX 19 21 1 1
BITMAP
00C000
00E000
01E000
01A000
033000
031000
021800
061800
060C00
0C0C00
0C0600
180600
180300
300300
300100
200180
600180
4000C0
C000C0
FFFFE0
FFFFE0
ENDCHAR
STARTCHAR 220F
ENCODING 8719
SWIDTH 766 0
DWIDTH 23 0
BBX 21 26 1 -5
BITMAP
FFFFF8
FFFFF8
1800C0
1800C0
1800C0
1800C0
1800C0
1800C0
1800C0
1800C0
1800C0
1800C0
1800C0
1800C0
1800C0
1800C0
1800C0
1800C0
1800C0
1800C0
1800C0
1800C0
1800C0
1800C0
FF07F8
FF07F8
ENDCHAR
STARTCHAR 2211
ENCODING 8721
SWIDTH 600 0
DWIDTH 18 0
BBX 17 27 0 -6
BITMAP
FFFF80
FFFF80
600180
300180
300180
180180
0C0000
040000
060000
030000
010000
018000
00C000
004000
00C000
018000
010000
030000
060000
0C0000
0C0000
180180
300180
300180
600180
FFFF80
FFFF80
ENDCHAR
STARTCHAR 2212
ENCODING 8722
SWIDTH 466 0
DWIDTH 14 0
BBX 12 2 1 9
BITMAP
FFF0
FFF0
ENDCHAR
STARTCHAR 2215
ENCODING 8725
SWIDTH 633 0
DWIDTH 19 0
BBX 18 21 1 0
BITMAP
0000C0
0001C0
000380
000700
000E00
000C00
001800
003800
007000
00E000
01C000
018000
030000
060000
0E0000
1C0000
380000
700000
600000
C00000
800000
ENDCHAR
STARTCHAR 2219
ENCODING 8729
SWIDTH 166 0
DWIDTH 5 0
BBX 4 4 0 7
BITMAP
60
F0
F0
60
ENDCHAR
STARTCHAR 221A
ENCODING 8730
SWIDTH 666 0
DWIDTH 20 0
BBX 19 27 1 -6
BITMAP
0003E0
0003E0
000600
000600
000600
000600
000600
000400
000C00
000C00
000C00
700C00
F80C00
180800
0C1800
0C1800
061800
061800
031800
031000
01B000
01B000
00F000
00F000
007000
006000
002000
ENDCHAR
STARTCHAR 221E
ENCODING 8734
SWIDTH 933 0
DWIDTH 28 0
BBX 27 14 0 5
BITMAP
0F807F00
3FC0FF80
3861C1C0
603180C0
E01B00E0
C00E0060
C0040060
C00E0060
C00A0060
E01B00C0
603181C0
3860FF80
3FC07F00
0F800000
ENDCHAR
STARTCHAR 222B
ENCODING 8747
SWIDTH 333 0
DWIDTH 10 0
BBX 9 26 0 -5
BITMAP
0780
0F80
0C80
0C00
0C00
0C00
0C00
0C00
0C00
0C00
0C00
0C00
0C00
0C00
0C00
0C00
0C00
0C00
0C00
0C00
0C00
0C00
0C00
CC00
FC00
7800
ENDCHAR
STARTCHAR 2248
ENCODING 8776
SWIDTH 633 0
DWIDTH 19 0
BBX 18 13 1 4
BITMAP
1E00C0
7F8180
61E380
C07F00
801E00
000000
FFFF80
FFFF80
000000
000000
000000
FFFF80
FFFF80
ENDCHAR
STARTCHAR 2260
ENCODING 8800
SWIDTH 600 0
DWIDTH 18 0
BBX 18 21 0 0
BITMAP
000200
000600
000600
000C00
000C00
001800
003000
FFFFC0
FFFFC0
006000
00C000
00C000
FFFFC0
FFFFC0
030000
070000
060000
0C0000
0C0000
180000
180000
ENDCHAR
STARTCHAR 2264
ENCODING 8804
SWIDTH 566 0
DWIDTH 17 0
BBX 15 17 1 0
BITMAP
0006
001E
0078
03E0
0F80
3C00
F000
E000
7C00
1F00
03C0
00F0
003C
000E
0000
FFFE
FFFE
ENDCHAR
STARTCHAR 2265
ENCODING 8805
SWIDTH 566 0
DWIDTH 17 0
BBX 15 17 1 0
BITMAP
C000
F000
3C00
0F00
03E0
00F8
001E
001E
0078
01E0
0780
3E00
F800
C000
0000
FFFE
FFFE
ENDCHAR
STARTCHAR 25CA
ENCODING 9674
SWIDTH 500 0
DWIDTH 15 0
BBX 13 22 1 -3
BITMAP
0200
0700
0D00
0980
1880
10C0
3060
6020
6030
C010
C018
C038
E030
6070
7060
30E0
18C0
1DC0
0F80
0F00
0700
0600
ENDCHAR
STARTCHAR FB01
ENCODING 64257
SWIDTH 533 0
DWIDTH 16 0
BBX 14 20 1 0
BITMAP
03E0
0FF0
1C38
381C
300C
300C
FFE0
FFE0
3060
3060
3060
3060
3060
3060
3060
3060
3060
3060
78F0
78F0
ENDCHAR
STARTCHAR FB02
ENCODING 64258
SWIDTH 466 0
DWIDTH 14 0
BBX 12 20 1 0
BITMAP
07C0
0FE0
1C60
3860
3060
3060
FE60
FE60
3060
3060
3060
3060
3060
3060
3060
3060
3060
3060
78F0
78F0
ENDCHAR
ENDFONT
